<svg width="187" height="31" viewBox="0 0 187 31" fill="none" xmlns="http://www.w3.org/2000/svg">
<path d="M43.9332 22.207C41.7187 22.207 39.6284 21.4412 37.8899 19.889L39.4214 18.0678C40.8081 19.2681 42.2154 19.9511 43.9953 19.9511C45.5682 19.9511 46.5616 19.206 46.5616 18.1298V18.0885C46.5616 17.0536 45.9821 16.4949 43.2916 15.874C40.2079 15.1289 38.4694 14.2183 38.4694 11.5485V11.5071C38.4694 9.02359 40.539 7.30582 43.4158 7.30582C45.5268 7.30582 47.2031 7.9474 48.6726 9.12707L47.3066 11.0518C46.0028 10.0791 44.6989 9.56169 43.3744 9.56169C41.8843 9.56169 41.015 10.3274 41.015 11.2795V11.3208C41.015 12.4384 41.6773 12.9351 44.4713 13.5974C47.5343 14.3425 49.1072 15.4394 49.1072 17.8401V17.8815C49.1072 20.5927 46.9755 22.207 43.9332 22.207ZM55.5778 22.2277C53.1149 22.2277 51.6869 20.572 51.6869 18.0264V11.0725H54.1911V17.2813C54.1911 18.9784 55.0397 19.9304 56.5298 19.9304C57.9785 19.9304 58.9926 18.937 58.9926 17.2399V11.0725H61.5175V22H58.9926V20.3029C58.2889 21.3377 57.2748 22.2277 55.5778 22.2277ZM64.645 25.3114V11.0725H67.1493V12.8937C67.9564 11.7555 69.0947 10.8448 70.8745 10.8448C73.4409 10.8448 75.9451 12.8731 75.9451 16.5156V16.5569C75.9451 20.1787 73.4616 22.2277 70.8745 22.2277C69.0533 22.2277 67.915 21.317 67.1493 20.3029V25.3114H64.645ZM70.2744 20.0546C71.9921 20.0546 73.3995 18.7093 73.3995 16.5569V16.5156C73.3995 14.4046 71.9714 13.0179 70.2744 13.0179C68.5773 13.0179 67.0872 14.4253 67.0872 16.5156V16.5569C67.0872 18.6472 68.5773 20.0546 70.2744 20.0546ZM83.5384 22.2484C80.3719 22.2484 77.9298 19.9511 77.9298 16.5776V16.5362C77.9298 13.4111 80.1443 10.8448 83.2694 10.8448C86.7463 10.8448 88.5055 13.5767 88.5055 16.7225C88.5055 16.9502 88.4848 17.1778 88.4641 17.4262H80.434C80.7031 19.206 81.9655 20.1994 83.5798 20.1994C84.8009 20.1994 85.6701 19.7441 86.5393 18.8956L88.0088 20.1994C86.974 21.4412 85.5459 22.2484 83.5384 22.2484ZM80.4133 15.7705H86.0219C85.8564 14.1562 84.9044 12.8937 83.2487 12.8937C81.7172 12.8937 80.641 14.0734 80.4133 15.7705ZM91.0204 22V11.0725H93.5246V13.5353C94.2075 11.9003 95.47 10.7828 97.3947 10.8655V13.5146H97.2499C95.0561 13.5146 93.5246 14.9427 93.5246 17.8401V22H91.0204ZM104.93 22.207C102.715 22.207 100.625 21.4412 98.8866 19.889L100.418 18.0678C101.805 19.2681 103.212 19.9511 104.992 19.9511C106.565 19.9511 107.558 19.206 107.558 18.1298V18.0885C107.558 17.0536 106.979 16.4949 104.288 15.874C101.205 15.1289 99.4661 14.2183 99.4661 11.5485V11.5071C99.4661 9.02359 101.536 7.30582 104.412 7.30582C106.523 7.30582 108.2 7.9474 109.669 9.12707L108.303 11.0518C106.999 10.0791 105.696 9.56169 104.371 9.56169C102.881 9.56169 102.012 10.3274 102.012 11.2795V11.3208C102.012 12.4384 102.674 12.9351 105.468 13.5974C108.531 14.3425 110.104 15.4394 110.104 17.8401V17.8815C110.104 20.5927 107.972 22.207 104.93 22.207ZM112.808 22V6.8919H115.312V12.7489C116.016 11.7348 117.03 10.8448 118.727 10.8448C121.19 10.8448 122.618 12.5005 122.618 15.0254V22H120.113V15.7912C120.113 14.0941 119.265 13.1214 117.775 13.1214C116.326 13.1214 115.312 14.1355 115.312 15.8326V22H112.808ZM130.836 22.2484C127.504 22.2484 125.042 19.7027 125.042 16.5983V16.5569C125.042 13.4318 127.525 10.8448 130.878 10.8448C134.231 10.8448 136.693 13.3905 136.693 16.5156V16.5569C136.693 19.6613 134.21 22.2484 130.836 22.2484ZM130.878 20.0546C132.906 20.0546 134.189 18.4817 134.189 16.5983V16.5569C134.189 14.6322 132.803 13.0386 130.836 13.0386C128.829 13.0386 127.546 14.6115 127.546 16.5156V16.5569C127.546 18.461 128.932 20.0546 130.878 20.0546ZM139.244 25.3114V11.0725H141.748V12.8937C142.555 11.7555 143.693 10.8448 145.473 10.8448C148.04 10.8448 150.544 12.8731 150.544 16.5156V16.5569C150.544 20.1787 148.06 22.2277 145.473 22.2277C143.652 22.2277 142.514 21.317 141.748 20.3029V25.3114H139.244ZM144.873 20.0546C146.591 20.0546 147.998 18.7093 147.998 16.5569V16.5156C147.998 14.4046 146.57 13.0179 144.873 13.0179C143.176 13.0179 141.686 14.4253 141.686 16.5156V16.5569C141.686 18.6472 143.176 20.0546 144.873 20.0546ZM153.129 25.3114V11.0725H155.633V12.8937C156.44 11.7555 157.578 10.8448 159.358 10.8448C161.924 10.8448 164.429 12.8731 164.429 16.5156V16.5569C164.429 20.1787 161.945 22.2277 159.358 22.2277C157.537 22.2277 156.399 21.317 155.633 20.3029V25.3114H153.129ZM158.758 20.0546C160.476 20.0546 161.883 18.7093 161.883 16.5569V16.5156C161.883 14.4046 160.455 13.0179 158.758 13.0179C157.061 13.0179 155.571 14.4253 155.571 16.5156V16.5569C155.571 18.6472 157.061 20.0546 158.758 20.0546ZM172.022 22.2484C168.856 22.2484 166.413 19.9511 166.413 16.5776V16.5362C166.413 13.4111 168.628 10.8448 171.753 10.8448C175.23 10.8448 176.989 13.5767 176.989 16.7225C176.989 16.9502 176.968 17.1778 176.948 17.4262H168.918C169.187 19.206 170.449 20.1994 172.063 20.1994C173.284 20.1994 174.154 19.7441 175.023 18.8956L176.492 20.1994C175.458 21.4412 174.03 22.2484 172.022 22.2484ZM168.897 15.7705H174.506C174.34 14.1562 173.388 12.8937 171.732 12.8937C170.201 12.8937 169.125 14.0734 168.897 15.7705ZM179.504 22V11.0725H182.008V13.5353C182.691 11.9003 183.954 10.7828 185.878 10.8655V13.5146H185.733C183.54 13.5146 182.008 14.9427 182.008 17.8401V22H179.504Z" fill="#0085FF"/>
<path d="M15.615 30.4229C14.4424 30.4229 13.5543 29.6459 12.7706 28.9596L12.7315 28.9254C12.2974 28.5475 11.8482 28.1563 11.4915 28.0432C11.1279 27.9274 10.4996 27.9932 9.94482 28.0511L9.90138 28.0554C9.10675 28.1379 8.28475 28.223 7.50836 27.9761C7.23813 27.8901 6.98266 27.7621 6.74892 27.5963L6.74501 27.5937C5.74532 26.8719 5.47899 25.6827 5.24395 24.6338C5.12578 24.1015 4.9924 23.4994 4.78299 23.2135C4.56489 22.9171 4.00443 22.5921 3.55433 22.3317C2.63675 21.7998 1.59665 21.1973 1.20997 20.0365C0.828952 18.8881 1.29556 17.7778 1.70743 16.7978C1.92423 16.2829 2.16927 15.7002 2.16666 15.3253V15.2573C2.13755 14.9297 1.92293 14.4452 1.71525 13.976L1.69657 13.9343C1.27949 12.9968 0.760742 11.8295 1.13351 10.6368C1.50975 9.43309 2.60069 8.78103 3.47743 8.25702L3.49177 8.24825C3.96707 7.96103 4.45844 7.66416 4.647 7.39624C4.86206 7.09542 4.99196 6.4767 5.10709 5.9312L5.1084 5.92418C5.32824 4.88274 5.57762 3.70272 6.54125 2.98358C7.52053 2.25522 8.71399 2.36441 9.76713 2.46088H9.77321C10.3185 2.51087 10.9363 2.56744 11.2686 2.45387C11.5884 2.34512 12.015 1.95704 12.4282 1.58212L12.4617 1.55143C13.2519 0.829649 14.1474 0.0135936 15.3673 0C15.3739 0 15.3804 0 15.3869 0C16.5599 0 17.4475 0.777028 18.2317 1.46329L18.2708 1.49705C18.7053 1.87504 19.1541 2.26619 19.5108 2.37976C19.8744 2.49552 20.5027 2.42975 21.057 2.37187L21.0831 2.36923C22.1197 2.26092 23.2945 2.13858 24.2555 2.82835C25.2565 3.551 25.5229 4.74022 25.7579 5.78912C25.8761 6.32147 26.0095 6.92353 26.2189 7.20943C26.437 7.50586 26.9974 7.83079 27.4475 8.09127C28.3651 8.62317 29.4052 9.22567 29.7919 10.3864C30.1729 11.5348 29.7063 12.6456 29.2944 13.6252C29.0776 14.14 28.8326 14.7228 28.8352 15.0977C28.8369 15.4261 29.0668 15.9453 29.2892 16.4478L29.3053 16.4838C29.7237 17.42 30.2459 18.5873 29.871 19.7875C29.4947 20.9912 28.4038 21.6432 27.5275 22.1672L27.5131 22.176C27.0378 22.4632 26.5465 22.7601 26.3575 23.0284C26.1424 23.3293 26.0125 23.9475 25.8974 24.4935L25.8956 24.5009C25.6758 25.5424 25.4269 26.722 24.4628 27.4415C23.4835 28.1699 22.29 28.0607 21.2369 27.9642C20.6873 27.9138 20.066 27.8564 19.7324 27.9704C19.4126 28.0791 18.986 28.4672 18.5732 28.8421L18.5393 28.8728C17.7491 29.5928 16.8536 30.4093 15.6337 30.4225C15.6271 30.4225 15.6206 30.4225 15.6141 30.4225L15.615 30.4229ZM3.27236 16.129C3.16201 16.5211 2.99561 16.9161 2.84138 17.2832C2.48338 18.1347 2.14537 18.9398 2.37781 19.641C2.61546 20.354 3.36968 20.7912 4.16779 21.2538C4.74562 21.5888 5.40122 21.9681 5.77312 22.4737C6.13807 22.9719 6.29448 23.6783 6.4461 24.3615C6.6503 25.2731 6.84364 26.1352 7.46057 26.5821C7.59178 26.675 7.72863 26.7434 7.87939 26.7912C8.41248 26.9609 9.10588 26.889 9.77625 26.8197L9.81883 26.8154C10.1933 26.7763 10.5744 26.7364 10.9406 26.7364C11.2652 26.7364 11.5775 26.7676 11.8625 26.8583C12.4612 27.0486 13.0078 27.5249 13.5365 27.9849L13.5782 28.0212C14.2595 28.6172 14.9029 29.1807 15.6145 29.1807C15.618 29.1807 15.6211 29.1807 15.6245 29.1807C16.3762 29.1723 17.027 28.5795 17.7156 27.9511L17.7508 27.9191C18.28 27.4385 18.7796 26.9842 19.3396 26.7934C19.9196 26.5952 20.646 26.6623 21.349 26.7268C22.2653 26.8105 23.1307 26.8895 23.7329 26.4418C24.3212 26.0028 24.5015 25.1477 24.6926 24.2422L24.6939 24.2352C24.8408 23.5371 24.9928 22.8153 25.3569 22.3054C25.6927 21.8283 26.2701 21.4792 26.8814 21.11L26.8979 21.0999C27.6326 20.6605 28.4629 20.1641 28.697 19.4139C28.9308 18.6662 28.5502 17.816 28.1826 16.9933L28.1657 16.9552C27.8785 16.3066 27.6074 15.694 27.6044 15.1056C27.5992 14.4746 27.8981 13.7655 28.1614 13.1398C28.5194 12.2882 28.8574 11.4831 28.6249 10.7819C28.3873 10.0689 27.633 9.63173 26.8349 9.16911C26.2571 8.83409 25.6015 8.45478 25.2296 7.94919C24.8647 7.45105 24.7083 6.74462 24.5566 6.06143C24.3524 5.14891 24.1591 4.28637 23.5404 3.83954C22.9595 3.42252 22.1097 3.5111 21.21 3.60494L21.1843 3.60757C20.4779 3.68124 19.7476 3.75754 19.1406 3.56459C18.5419 3.37385 17.9954 2.89807 17.4667 2.43808L17.4254 2.40212C16.7411 1.80313 16.0942 1.23614 15.3791 1.24272C14.6274 1.25105 13.9771 1.84391 13.288 2.47184L13.2528 2.50385C12.7236 2.98445 12.224 3.43874 11.6636 3.62949C11.0853 3.82726 10.3623 3.76104 9.66286 3.69746H9.65634C8.74006 3.61327 7.87505 3.5339 7.27288 3.98205C6.68462 4.42099 6.50432 5.27607 6.31316 6.18114L6.31186 6.18772C6.16501 6.88582 6.01295 7.60803 5.64887 8.11758C5.31303 8.59467 4.73563 8.94372 4.12478 9.31294L4.10783 9.32302C3.37316 9.7624 2.5429 10.2588 2.30829 11.0091C2.07673 11.7506 2.45471 12.6013 2.82052 13.4239L2.83964 13.4673C3.12682 14.1159 3.39792 14.7285 3.40096 15.3169C3.40096 15.3169 3.37837 15.8102 3.27236 16.1282V16.129Z" fill="#0085FF"/>
<path d="M9.98262 20.3102L11.4898 18.5009C12.8544 19.6932 14.2395 20.3715 15.9912 20.3715C17.5392 20.3715 18.5172 19.6314 18.5172 18.5623V18.5211C18.5172 17.4932 17.9467 16.9381 15.2987 16.3215C12.2635 15.5813 10.5526 14.6767 10.5526 12.0246V11.9834C10.5526 9.5164 12.5894 7.81018 15.4208 7.81018C17.4984 7.81018 19.1485 8.44733 20.5943 9.61945L19.2501 11.5313C17.9667 10.5649 16.6838 10.0509 15.3799 10.0509C13.9132 10.0509 13.0577 10.8117 13.0577 11.7571V11.7984C13.0577 12.9087 13.7094 13.402 16.4591 14.0597C19.4739 14.7999 21.0219 15.8896 21.0219 18.2742V18.3154C21.0219 21.0087 18.9238 22.6123 15.9295 22.6123C13.7503 22.6123 11.6927 21.8515 9.98175 20.3097L9.98262 20.3102Z" fill="#0085FF"/>
</svg>
