<svg width="143" height="147" viewBox="0 0 143 147" fill="none" xmlns="http://www.w3.org/2000/svg">
<path d="M74.4314 144.264C68.8419 144.264 64.609 140.579 60.873 137.325L60.6866 137.163C58.6178 135.37 56.4764 133.515 54.7762 132.979C53.0428 132.43 50.0482 132.742 47.4036 133.016L47.1966 133.037C43.4088 133.428 39.4906 133.831 35.7899 132.661C34.5017 132.253 33.284 131.646 32.1699 130.86L32.1512 130.848C27.386 127.425 26.1165 121.786 24.9962 116.812C24.4329 114.288 23.7971 111.433 22.7989 110.077C21.7593 108.671 19.0878 107.13 16.9423 105.895C12.5685 103.373 7.61067 100.516 5.76754 95.012C3.95133 89.5661 6.17551 84.3012 8.13876 79.6539C9.17215 77.2127 10.3402 74.4492 10.3277 72.6714V72.3491C10.189 70.7958 9.16594 68.4981 8.17604 66.2732L8.08699 66.0757C6.09889 61.63 3.6262 56.0948 5.40306 50.4389C7.19648 44.7311 12.3966 41.6391 16.5757 39.1543L16.6441 39.1127C18.9097 37.7507 21.2519 36.343 22.1507 35.0725C23.1758 33.646 23.795 30.7121 24.3438 28.1254L24.35 28.0921C25.3979 23.1536 26.5866 17.5581 31.18 14.1479C35.8478 10.6941 41.5367 11.2119 46.5566 11.6693H46.5856C49.1847 11.9064 52.1295 12.1746 53.7138 11.6361C55.238 11.1204 57.2716 9.28016 59.2411 7.50231L59.4006 7.35676C63.1676 3.93414 67.4358 0.06446 73.251 0C73.282 0 73.3131 0 73.3442 0C78.9357 0 83.1666 3.68462 86.9046 6.93881L87.091 7.09892C89.1619 8.89132 91.3012 10.7461 93.0014 11.2847C94.7348 11.8336 97.7294 11.5217 100.372 11.2472L100.496 11.2348C105.437 10.7212 111.037 10.141 115.618 13.4118C120.39 16.8386 121.659 22.4778 122.779 27.4516C123.343 29.976 123.978 32.8309 124.977 34.1867C126.016 35.5923 128.688 37.1331 130.833 38.3683C135.207 40.8905 140.165 43.7476 142.008 49.2516C143.824 54.6974 141.6 59.9644 139.637 64.6097C138.603 67.0509 137.435 69.8143 137.448 71.5922C137.456 73.1496 138.552 75.6116 139.612 77.9945L139.689 78.165C141.683 82.6045 144.172 88.1397 142.385 93.8309C140.591 99.5387 135.391 102.631 131.214 105.116L131.146 105.157C128.88 106.519 126.538 107.927 125.637 109.199C124.612 110.626 123.993 113.558 123.444 116.147L123.436 116.182C122.388 121.12 121.201 126.714 116.606 130.126C111.938 133.58 106.249 133.062 101.229 132.605C98.6095 132.365 95.6481 132.093 94.0576 132.634C92.5334 133.149 90.4998 134.99 88.5324 136.767L88.3708 136.913C84.6038 140.327 80.3356 144.199 74.5204 144.261C74.4894 144.261 74.4583 144.261 74.4273 144.261L74.4314 144.264ZM15.5983 76.4828C15.0722 78.3418 14.2791 80.2153 13.5439 81.9557C11.8374 85.9938 10.2263 89.8115 11.3342 93.1364C12.467 96.5174 16.0621 98.5905 19.8665 100.784C22.6208 102.373 25.7458 104.172 27.5186 106.569C29.2581 108.931 30.0037 112.281 30.7264 115.521C31.6998 119.844 32.6213 123.932 35.5621 126.05C36.1875 126.491 36.8398 126.816 37.5584 127.042C40.0995 127.847 43.4047 127.506 46.6001 127.178L46.8031 127.157C48.5882 126.972 50.4044 126.782 52.1502 126.782C53.6972 126.782 55.1862 126.93 56.5447 127.36C59.3985 128.263 62.0037 130.521 64.5241 132.702L64.7229 132.875C67.9701 135.701 71.0371 138.373 74.4293 138.373C74.4459 138.373 74.4604 138.373 74.477 138.373C78.0597 138.333 81.1619 135.522 84.4444 132.542L84.6121 132.39C87.1345 130.111 89.5161 127.957 92.1855 127.053C94.9502 126.113 98.4128 126.431 101.764 126.737C106.131 127.134 110.256 127.508 113.127 125.385C115.931 123.304 116.79 119.249 117.701 114.955L117.708 114.922C118.408 111.611 119.132 108.189 120.868 105.771C122.469 103.508 125.221 101.853 128.135 100.102L128.214 100.054C131.715 97.9709 135.673 95.6171 136.789 92.0593C137.903 88.514 136.089 84.4821 134.337 80.5812L134.257 80.4003C132.888 77.325 131.595 74.4201 131.581 71.6296C131.556 68.6374 132.981 65.2751 134.236 62.3079C135.942 58.2698 137.553 54.4521 136.445 51.1272C135.313 47.7462 131.718 45.673 127.913 43.4793C125.159 41.8907 122.034 40.092 120.261 37.6945C118.522 35.3324 117.776 31.9826 117.053 28.7429C116.08 24.4158 115.158 20.3257 112.209 18.2068C109.441 16.2294 105.39 16.6494 101.101 17.0944L100.979 17.1069C97.6114 17.4562 94.1301 17.818 91.237 16.9031C88.3833 15.9986 85.778 13.7425 83.2577 11.5612L83.061 11.3907C79.7993 8.55031 76.7156 5.8617 73.3069 5.89289C69.7242 5.9324 66.624 8.74369 63.3395 11.7213L63.1717 11.8731C60.6493 14.1521 58.2678 16.3063 55.5963 17.2108C52.8398 18.1486 49.3938 17.8346 46.0596 17.5331H46.0285C41.6609 17.1339 37.5377 16.7575 34.6674 18.8826C31.8634 20.9641 31.0039 25.0188 30.0927 29.3106L30.0865 29.3418C29.3865 32.6521 28.6617 36.0768 26.9263 38.493C25.3254 40.7554 22.5732 42.4105 19.6614 44.1613L19.5807 44.2092C16.0787 46.2927 12.1212 48.6465 11.0029 52.2043C9.89905 55.7205 11.7008 59.7544 13.4445 63.6553L13.5356 63.8611C14.9045 66.9365 16.1968 69.8414 16.2113 72.6319C16.2113 72.6319 16.1036 74.9711 15.5983 76.4787V76.4828Z" fill="#0085FF"/>
<path d="M47.5838 96.3095L54.7679 87.7301C61.2727 93.3838 67.8748 96.6006 76.2248 96.6006C83.6036 96.6006 88.2652 93.0907 88.2652 88.0212V87.8257C88.2652 82.9517 85.5461 80.3193 72.9238 77.3957C58.4562 73.8857 50.3009 69.596 50.3009 57.0201V56.8246C50.3009 45.1262 60.0094 37.0354 73.5057 37.0354C83.4089 37.0354 91.2743 40.0567 98.1664 45.6148L91.7589 54.6808C85.6414 50.0979 79.5259 47.6609 73.311 47.6609C66.3196 47.6609 62.2419 51.2686 62.2419 55.7517V55.9471C62.2419 61.2121 65.3483 63.5513 78.4552 66.6704C92.8254 70.1803 100.204 75.3475 100.204 86.655V86.8505C100.204 99.6219 90.2036 107.226 75.9308 107.226C65.543 107.226 55.735 103.618 47.5797 96.3074L47.5838 96.3095Z" fill="#0085FF"/>
</svg>
